<svg width="350" height="350" viewBox="0 0 350 350" fill="none" xmlns="http://www.w3.org/2000/svg">
<path d="M31.4562 255.831C56.9397 302.418 301.223 299.232 321.53 255.831" stroke="url(#paint0_linear_2_6)" stroke-width="7.96359"/>
<path d="M45.3925 174.801V174.801C60.047 179.765 69.8179 193.529 71.8549 208.867V208.867C72.1136 210.815 72.5448 212.98 73.1645 214.845C73.5206 215.917 73.8868 216.945 74.0615 217.207C74.1625 217.359 74.4688 217.728 74.8695 218.195C76.5654 220.172 79.5898 220.24 81.4315 218.398V218.398C84.2954 215.534 89.1923 217.562 89.1923 221.612V224.68C89.1923 226.606 90.1456 228.407 91.7382 229.49L93.2191 230.497C96.7043 232.867 101.354 232.566 104.505 229.765L105.967 228.466C108.467 226.243 109.898 223.058 109.898 219.712V216.005C109.898 204.62 119.4 195.54 130.773 196.057L146.629 196.778C160.386 197.403 171.217 208.738 171.217 222.509V228.672C171.217 232.384 172.86 235.905 175.705 238.29L176.339 238.821C181.068 242.785 188.065 242.383 192.308 237.904V237.904C194.362 235.736 195.506 232.864 195.506 229.878V222.516C195.506 208.188 205.591 195.839 219.63 192.977L308.788 174.801" stroke="url(#paint1_linear_2_6)" stroke-width="7.96359"/>
<path d="M57.537 101.337L28.4007 273.663C27.6708 277.979 28.2394 282.533 30.9747 285.951C49.5562 309.171 99.1164 313.359 177.19 315.956C251.496 316.868 294.487 309.563 319.173 286.935C323.463 283.003 324.964 277.013 324.012 271.271L295.848 101.337" stroke="url(#paint2_linear_2_6)" stroke-width="7.96359"/>
<path d="M296.246 102.73C296.246 107.07 293.754 111.764 287.982 116.562C282.234 121.341 273.677 125.823 262.753 129.664C240.942 137.333 210.55 142.15 176.792 142.15C143.033 142.15 112.641 137.333 90.8303 129.664C79.9066 125.823 71.35 121.341 65.6017 116.562C59.8297 111.764 57.3379 107.07 57.3379 102.73C57.3379 98.3903 59.8297 93.6968 65.6017 88.8985C71.35 84.1199 79.9066 79.6381 90.8303 75.7972C112.641 68.1281 143.033 63.3106 176.792 63.3106C210.55 63.3106 240.942 68.1281 262.753 75.7972C273.677 79.6381 282.234 84.1199 287.982 88.8985C293.754 93.6968 296.246 98.3903 296.246 102.73Z" stroke="url(#paint3_linear_2_6)" stroke-width="7.96359"/>
<path d="M255.233 99.5449C255.233 101.4 254.045 103.875 250.222 106.745C246.468 109.563 240.784 112.27 233.402 114.614C218.685 119.287 198.106 122.241 175.199 122.241C152.292 122.241 131.713 119.287 116.996 114.614C109.614 112.27 103.93 109.563 100.176 106.745C96.3535 103.875 95.1649 101.4 95.1649 99.5449C95.1649 97.6894 96.3535 95.2147 100.176 92.3449C103.93 89.5269 109.614 86.8197 116.996 84.4758C131.713 79.8025 152.292 76.8487 175.199 76.8487C198.106 76.8487 218.685 79.8025 233.402 84.4758C240.784 86.8197 246.468 89.5269 250.222 92.3449C254.045 95.2147 255.233 97.6894 255.233 99.5449Z" stroke="url(#paint4_linear_2_6)" stroke-width="7.96359"/>
<defs>
<linearGradient id="paint0_linear_2_6" x1="176.493" y1="255.831" x2="176.493" y2="289.587" gradientUnits="userSpaceOnUse">
<stop stop-color="#3B82F6"/>
<stop offset="1" stop-color="#C67DFF"/>
</linearGradient>
<linearGradient id="paint1_linear_2_6" x1="177.09" y1="174.801" x2="177.09" y2="245.876" gradientUnits="userSpaceOnUse">
<stop stop-color="#3B82F6"/>
<stop offset="1" stop-color="#C67DFF"/>
</linearGradient>
<linearGradient id="paint2_linear_2_6" x1="176.394" y1="101.337" x2="176.394" y2="316.03" gradientUnits="userSpaceOnUse">
<stop stop-color="#3B82F6"/>
<stop offset="1" stop-color="#C67DFF"/>
</linearGradient>
<linearGradient id="paint3_linear_2_6" x1="176.792" y1="59.3288" x2="176.792" y2="146.132" gradientUnits="userSpaceOnUse">
<stop stop-color="#3B82F6"/>
<stop offset="1" stop-color="#C67DFF"/>
</linearGradient>
<linearGradient id="paint4_linear_2_6" x1="175.199" y1="72.8669" x2="175.199" y2="126.223" gradientUnits="userSpaceOnUse">
<stop stop-color="#3B82F6"/>
<stop offset="1" stop-color="#C67DFF"/>
</linearGradient>
</defs>
</svg>
